<?xml version="1.0" encoding="UTF-8"?>
<svg version="1.1" xmlns="http://www.w3.org/2000/svg" width="48" height="48">
<path d="M0 0 C4.92002811 3.87344319 8.90993134 8.36469298 10.78125 14.40234375 C11.58639105 22.23842583 11.90585392 30.02156952 6.78125 36.40234375 C1.97676361 41.44755597 -2.38052055 45.0079737 -9.48828125 45.73828125 C-18.00451573 45.83217579 -23.89470494 45.52007255 -30.18359375 39.53125 C-36.3835881 32.82409864 -37.63867891 27.63892435 -37.46484375 18.55859375 C-36.90281319 11.35032881 -33.31032287 6.36534155 -28.21875 1.40234375 C-20.44952323 -4.14710394 -8.29020222 -4.93548056 0 0 Z " fill="#022081" transform="translate(37.21875,2.59765625)"/>
<path d="M0 0 C4.34863397 3.84143954 6.24582387 9.286351 8.6875 14.4375 C9.19861328 15.48744141 9.70972656 16.53738281 10.23632812 17.61914062 C10.96045898 19.13604492 10.96045898 19.13604492 11.69921875 20.68359375 C12.14096436 21.60712646 12.58270996 22.53065918 13.0378418 23.48217773 C14 26 14 26 14 30 C4.76 30 -4.48 30 -14 30 C-13.24930592 26.2465296 -12.64529002 23.88506134 -11.07421875 20.56640625 C-10.68943359 19.75236328 -10.30464844 18.93832031 -9.90820312 18.09960938 C-9.50537109 17.26236328 -9.10253906 16.42511719 -8.6875 15.5625 C-8.29626953 14.72912109 -7.90503906 13.89574219 -7.50195312 13.03710938 C-5.30228313 8.42254464 -2.96164446 4.16798935 0 0 Z " fill="#05207F" transform="translate(24,9)"/>
<path d="M0 0 C4.34863397 3.84143954 6.24582387 9.286351 8.6875 14.4375 C9.19861328 15.48744141 9.70972656 16.53738281 10.23632812 17.61914062 C10.96045898 19.13604492 10.96045898 19.13604492 11.69921875 20.68359375 C12.14096436 21.60712646 12.58270996 22.53065918 13.0378418 23.48217773 C14 26 14 26 14 30 C4.76 30 -4.48 30 -14 30 C-13.24930592 26.2465296 -12.64529002 23.88506134 -11.07421875 20.56640625 C-10.68943359 19.75236328 -10.30464844 18.93832031 -9.90820312 18.09960938 C-9.50537109 17.26236328 -9.10253906 16.42511719 -8.6875 15.5625 C-8.29626953 14.72912109 -7.90503906 13.89574219 -7.50195312 13.03710938 C-5.30228313 8.42254464 -2.96164446 4.16798935 0 0 Z M-1 5 C-2.64954167 8.10220977 -4.2939881 11.20709211 -5.9375 14.3125 C-6.40607422 15.19357422 -6.87464844 16.07464844 -7.35742188 16.98242188 C-7.80537109 17.82998047 -8.25332031 18.67753906 -8.71484375 19.55078125 C-9.12855225 20.33106689 -9.54226074 21.11135254 -9.96850586 21.9152832 C-11.11114267 24.10462078 -11.11114267 24.10462078 -12 27 C-4.74 27 2.52 27 10 27 C8.741875 24.1125 7.48375 21.225 6.1875 18.25 C5.79715576 17.34668945 5.40681152 16.44337891 5.00463867 15.51269531 C4.6872876 14.79178711 4.36993652 14.07087891 4.04296875 13.328125 C3.56380005 12.22839355 3.56380005 12.22839355 3.07495117 11.10644531 C1.92829629 8.85949134 0.56550764 6.97296853 -1 5 Z " fill="#E4050C" transform="translate(24,9)"/>
</svg>
