<svg version="1.1" id="Layer_1" xmlns="http://www.w3.org/2000/svg" xmlns:xlink="http://www.w3.org/1999/xlink" x="0px" y="0px"
	 width="100%" viewBox="0 0 250 217" enable-background="new 0 0 250 217" xml:space="preserve">
<path fill="#010101" opacity="1.000000" stroke="none" 
	d="
M155.000000,218.000000 
	C103.333336,218.000000 52.166672,218.000000 1.000007,218.000000 
	C1.000005,145.666672 1.000005,73.333351 1.000002,1.000017 
	C84.333321,1.000011 167.666641,1.000011 250.999969,1.000005 
	C250.999985,73.333321 250.999985,145.666641 251.000000,217.999969 
	C219.166672,218.000000 187.333328,218.000000 155.000000,218.000000 
M153.499969,207.879089 
	C161.999069,207.878998 170.501343,207.747574 178.995529,207.951889 
	C181.869171,208.020981 183.442230,207.081238 184.861740,204.609680 
	C202.478638,173.936325 220.180939,143.311890 237.935974,112.718231 
	C239.216690,110.511429 239.465500,108.885590 238.072433,106.493477 
	C220.188019,75.783104 202.482529,44.968452 184.547379,14.287962 
	C183.637604,12.731683 181.057602,11.262181 179.247772,11.253138 
	C143.750748,11.075787 108.252380,11.075821 72.755356,11.252982 
	C70.944626,11.262020 68.363472,12.728545 67.453102,14.284272 
	C49.587704,44.814526 31.955921,75.481400 14.139166,106.040352 
	C12.570643,108.730652 12.784654,110.625252 14.290632,113.167610 
	C21.823483,125.884415 29.167786,138.712875 36.585247,151.498093 
	C37.274525,152.686172 38.011917,153.846344 38.970596,155.419189 
	C43.393063,147.833466 47.585125,140.886536 51.456821,133.765427 
	C52.112675,132.559128 51.910675,130.319977 51.214584,129.043610 
	C48.274433,123.652542 45.130634,118.358719 41.786636,113.207634 
	C40.157692,110.698425 39.978130,108.818710 41.578468,106.088654 
	C54.763580,83.595810 67.816727,61.024654 80.731461,38.375504 
	C82.289619,35.642879 83.990265,34.884823 86.976845,34.898117 
	C112.974792,35.013836 138.973999,35.042194 164.971313,34.869503 
	C168.312210,34.847313 169.919662,36.002499 171.494751,38.758976 
	C184.347748,61.252281 197.323547,83.675812 210.370071,106.057571 
	C211.763504,108.448029 212.022308,110.182388 210.518219,112.749802 
	C197.338852,135.246780 184.267563,157.808380 171.382385,180.474823 
	C169.697311,183.439041 167.828690,184.114273 164.706451,184.099579 
	C140.208435,183.984177 115.709595,184.016830 91.211197,184.080643 
	C89.685196,184.084610 87.323326,184.236786 86.768600,185.166367 
	C82.417610,192.457565 78.412979,199.955475 74.030891,207.879089 
	C100.842308,207.879089 126.671120,207.879089 153.499969,207.879089 
M66.554649,125.012863 
	C59.584198,137.073502 52.565277,149.106766 45.712341,161.233810 
	C44.961864,162.561859 44.410732,164.850861 45.042507,165.981537 
	C51.981007,178.399185 59.172771,190.675308 66.342865,203.071198 
	C66.785210,202.595200 67.072090,202.385422 67.229225,202.103363 
	C84.016884,171.970581 100.810646,141.841125 117.508087,111.658386 
	C118.098328,110.591461 118.258308,108.718811 117.723816,107.683960 
	C111.393013,95.426804 104.891678,83.257744 98.072792,70.381302 
	C87.441750,88.839867 77.201744,106.619476 66.554649,125.012863 
M117.220131,129.718430 
	C108.868446,144.848511 100.516762,159.978592 91.891701,175.603943 
	C106.993401,175.603943 121.125450,175.707870 135.251511,175.463989 
	C136.898560,175.435547 139.152664,173.864594 140.042450,172.365860 
	C148.758621,157.684418 157.251495,142.870285 165.792419,128.084976 
	C168.405548,123.561325 170.971207,119.010231 173.945694,113.792694 
	C162.929443,113.792694 152.830719,113.765282 142.732254,113.803635 
	C137.255112,113.824440 130.545288,112.038490 126.631805,114.553535 
	C122.306480,117.333237 120.542870,124.099075 117.220131,129.718430 
M163.467133,105.203003 
	C166.694687,105.203003 169.922241,105.203003 174.012466,105.203003 
	C166.390884,92.006989 159.326584,79.663185 152.069016,67.434090 
	C151.516190,66.502556 149.603714,65.986557 148.306610,65.954712 
	C142.149796,65.803589 135.987198,65.887505 129.826660,65.887573 
	C121.943039,65.887650 114.059418,65.887589 105.463326,65.887589 
	C112.333809,78.971558 118.709312,91.302338 125.371140,103.476440 
	C125.969788,104.570427 128.414032,105.107986 130.011276,105.128845 
	C140.831985,105.270126 151.655441,105.202866 163.467133,105.203003 
z"/>
<path fill="#FCFCFC" opacity="1.000000" stroke="none" 
	d="
M152.999954,207.879089 
	C126.671120,207.879089 100.842308,207.879089 74.030891,207.879089 
	C78.412979,199.955475 82.417610,192.457565 86.768600,185.166367 
	C87.323326,184.236786 89.685196,184.084610 91.211197,184.080643 
	C115.709595,184.016830 140.208435,183.984177 164.706451,184.099579 
	C167.828690,184.114273 169.697311,183.439041 171.382385,180.474823 
	C184.267563,157.808380 197.338852,135.246780 210.518219,112.749802 
	C212.022308,110.182388 211.763504,108.448029 210.370071,106.057571 
	C197.323547,83.675812 184.347748,61.252281 171.494751,38.758976 
	C169.919662,36.002499 168.312210,34.847313 164.971313,34.869503 
	C138.973999,35.042194 112.974792,35.013836 86.976845,34.898117 
	C83.990265,34.884823 82.289619,35.642879 80.731461,38.375504 
	C67.816727,61.024654 54.763580,83.595810 41.578468,106.088654 
	C39.978130,108.818710 40.157692,110.698425 41.786636,113.207634 
	C45.130634,118.358719 48.274433,123.652542 51.214584,129.043610 
	C51.910675,130.319977 52.112675,132.559128 51.456821,133.765427 
	C47.585125,140.886536 43.393063,147.833466 38.970596,155.419189 
	C38.011917,153.846344 37.274525,152.686172 36.585247,151.498093 
	C29.167786,138.712875 21.823483,125.884415 14.290632,113.167610 
	C12.784654,110.625252 12.570643,108.730652 14.139166,106.040352 
	C31.955921,75.481400 49.587704,44.814526 67.453102,14.284272 
	C68.363472,12.728545 70.944626,11.262020 72.755356,11.252982 
	C108.252380,11.075821 143.750748,11.075787 179.247772,11.253138 
	C181.057602,11.262181 183.637604,12.731683 184.547379,14.287962 
	C202.482529,44.968452 220.188019,75.783104 238.072433,106.493477 
	C239.465500,108.885590 239.216690,110.511429 237.935974,112.718231 
	C220.180939,143.311890 202.478638,173.936325 184.861740,204.609680 
	C183.442230,207.081238 181.869171,208.020981 178.995529,207.951889 
	C170.501343,207.747574 161.999069,207.878998 152.999954,207.879089 
z"/>
<path fill="#FDFDFD" opacity="1.000000" stroke="none" 
	d="
M66.758194,124.705971 
	C77.201744,106.619476 87.441750,88.839867 98.072792,70.381302 
	C104.891678,83.257744 111.393013,95.426804 117.723816,107.683960 
	C118.258308,108.718811 118.098328,110.591461 117.508087,111.658386 
	C100.810646,141.841125 84.016884,171.970581 67.229225,202.103363 
	C67.072090,202.385422 66.785210,202.595200 66.342865,203.071198 
	C59.172771,190.675308 51.981007,178.399185 45.042507,165.981537 
	C44.410732,164.850861 44.961864,162.561859 45.712341,161.233810 
	C52.565277,149.106766 59.584198,137.073502 66.758194,124.705971 
z"/>
<path fill="#FCFCFC" opacity="1.000000" stroke="none" 
	d="
M117.441841,129.423630 
	C120.542870,124.099075 122.306480,117.333237 126.631805,114.553535 
	C130.545288,112.038490 137.255112,113.824440 142.732254,113.803635 
	C152.830719,113.765282 162.929443,113.792694 173.945694,113.792694 
	C170.971207,119.010231 168.405548,123.561325 165.792419,128.084976 
	C157.251495,142.870285 148.758621,157.684418 140.042450,172.365860 
	C139.152664,173.864594 136.898560,175.435547 135.251511,175.463989 
	C121.125450,175.707870 106.993401,175.603943 91.891701,175.603943 
	C100.516762,159.978592 108.868446,144.848511 117.441841,129.423630 
z"/>
<path fill="#FDFDFD" opacity="1.000000" stroke="none" 
	d="
M162.972565,105.203003 
	C151.655441,105.202866 140.831985,105.270126 130.011276,105.128845 
	C128.414032,105.107986 125.969788,104.570427 125.371140,103.476440 
	C118.709312,91.302338 112.333809,78.971558 105.463326,65.887589 
	C114.059418,65.887589 121.943039,65.887650 129.826660,65.887573 
	C135.987198,65.887505 142.149796,65.803589 148.306610,65.954712 
	C149.603714,65.986557 151.516190,66.502556 152.069016,67.434090 
	C159.326584,79.663185 166.390884,92.006989 174.012466,105.203003 
	C169.922241,105.203003 166.694687,105.203003 162.972565,105.203003 
z"/>
</svg>